# xmcd CD database file
#
# Track frame offsets:
#	150
#	13173
#	17453
#	33457
#	48440
#	52260
#	84423
#	94165
#	102691
#	119716
#	125611
#	149563
#	154254
#	164431
#	177758
#	188972
#	193162
#	213992
#	217858
#	226680
#	241235
#	250922
#
# Disc length: 3537 seconds
#
# Revision: 6
# Processed by: cddbd v1.5.1PL2 Copyright (c) Steve Scherf et al.
# Submitted via: CDex 1.51
#
DISCID=3e0dcf16
DTITLE=P.Pittorino - F.Machemehl - Y.Delannoy - L.Arthur - Contes du jour and de la nuit  (Improvisations)
DYEAR=2006
DGENRE=Jazz
TTITLE0=Voix de la houle
TTITLE1=Miladiou
TTITLE2=Tryptique bleu
TTITLE3=Deux nomades
TTITLE4=Biorythmes
TTITLE5=Voyage du quadrumane
TTITLE6=Conversation autour d'un verre
TTITLE7=Envolée
TTITLE8=Sortilège du dolmen
TTITLE9=Prince Arthur
TTITLE10=Contrées sauvages
TTITLE11=Fugue de Pyf
TTITLE12=Sculpture d'ambre
TTITLE13=Mer de nuages
TTITLE14=L'ange and l'archet
TTITLE15=Chutes libres
TTITLE16=Conte de l'improbable
TTITLE17=Lettre du chemin des bergers à Planchamp
TTITLE18=A l'aube, une goutte de rosée
TTITLE19=De l'autre coté du versant
TTITLE20=Petite incursion dans le cosmos
TTITLE21=L'orée du bois
EXTD=YEAR: 2006
EXTT0=
EXTT1=
EXTT2=
EXTT3=
EXTT4=
EXTT5=
EXTT6=
EXTT7=
EXTT8=
EXTT9=
EXTT10=
EXTT11=
EXTT12=
EXTT13=
EXTT14=
EXTT15=
EXTT16=
EXTT17=
EXTT18=
EXTT19=
EXTT20=
EXTT21=
PLAYORDER=
